<mxfile host="app.diagrams.net" modified="2024-04-16T01:02:53.269Z" agent="Mozilla/5.0 (Windows NT 10.0; Win64; x64) AppleWebKit/537.36 (KHTML, like Gecko) Chrome/123.0.0.0 Safari/537.36" etag="oz3RgehjqxahE-ndybZc" version="24.2.5" type="github">
  <diagram id="C5RBs43oDa-KdzZeNtuy" name="Page-1">
    <mxGraphModel dx="3407" dy="2283" grid="1" gridSize="10" guides="1" tooltips="1" connect="1" arrows="1" fold="1" page="1" pageScale="1" pageWidth="827" pageHeight="1169" math="0" shadow="0">
      <root>
        <mxCell id="WIyWlLk6GJQsqaUBKTNV-0" />
        <mxCell id="WIyWlLk6GJQsqaUBKTNV-1" parent="WIyWlLk6GJQsqaUBKTNV-0" />
        <mxCell id="PJYTQZl245SU4uXbmKMS-25" value="Menu" style="swimlane;whiteSpace=wrap;html=1;startSize=23;" vertex="1" parent="WIyWlLk6GJQsqaUBKTNV-1">
          <mxGeometry x="750" y="380" width="200" height="260" as="geometry" />
        </mxCell>
        <mxCell id="PJYTQZl245SU4uXbmKMS-26" value="+ NavegaçãoServiços" style="text;html=1;align=center;verticalAlign=middle;resizable=0;points=[];autosize=1;strokeColor=none;fillColor=none;" vertex="1" parent="PJYTQZl245SU4uXbmKMS-25">
          <mxGeometry y="110" width="140" height="30" as="geometry" />
        </mxCell>
        <mxCell id="PJYTQZl245SU4uXbmKMS-27" value="+ NavegaçãoFeedback" style="text;html=1;align=center;verticalAlign=middle;resizable=0;points=[];autosize=1;strokeColor=none;fillColor=none;" vertex="1" parent="PJYTQZl245SU4uXbmKMS-25">
          <mxGeometry y="140" width="150" height="30" as="geometry" />
        </mxCell>
        <mxCell id="PJYTQZl245SU4uXbmKMS-28" value="+ NavegaçãoCartaoFidelidade" style="text;html=1;align=center;verticalAlign=middle;resizable=0;points=[];autosize=1;strokeColor=none;fillColor=none;" vertex="1" parent="PJYTQZl245SU4uXbmKMS-25">
          <mxGeometry y="170" width="190" height="30" as="geometry" />
        </mxCell>
        <mxCell id="PJYTQZl245SU4uXbmKMS-29" value="+ NavegaçãoChatIntegrado" style="text;html=1;align=center;verticalAlign=middle;resizable=0;points=[];autosize=1;strokeColor=none;fillColor=none;" vertex="1" parent="PJYTQZl245SU4uXbmKMS-25">
          <mxGeometry y="200" width="170" height="30" as="geometry" />
        </mxCell>
        <mxCell id="PJYTQZl245SU4uXbmKMS-30" value="+ NavegaçãoConteudoEducativo" style="text;html=1;align=center;verticalAlign=middle;resizable=0;points=[];autosize=1;strokeColor=none;fillColor=none;" vertex="1" parent="PJYTQZl245SU4uXbmKMS-25">
          <mxGeometry y="230" width="200" height="30" as="geometry" />
        </mxCell>
        <mxCell id="PJYTQZl245SU4uXbmKMS-186" value="+ ExibirMenu" style="text;html=1;align=center;verticalAlign=middle;resizable=0;points=[];autosize=1;strokeColor=none;fillColor=none;" vertex="1" parent="PJYTQZl245SU4uXbmKMS-25">
          <mxGeometry y="80" width="90" height="30" as="geometry" />
        </mxCell>
        <mxCell id="PJYTQZl245SU4uXbmKMS-31" value="" style="endArrow=none;html=1;rounded=0;exitX=0;exitY=0.25;exitDx=0;exitDy=0;entryX=1;entryY=0.25;entryDx=0;entryDy=0;" edge="1" parent="WIyWlLk6GJQsqaUBKTNV-1" source="PJYTQZl245SU4uXbmKMS-25" target="PJYTQZl245SU4uXbmKMS-25">
          <mxGeometry width="50" height="50" relative="1" as="geometry">
            <mxPoint x="930" y="510" as="sourcePoint" />
            <mxPoint x="980" y="460" as="targetPoint" />
          </mxGeometry>
        </mxCell>
        <mxCell id="PJYTQZl245SU4uXbmKMS-32" value="Cadastro" style="swimlane;whiteSpace=wrap;html=1;" vertex="1" parent="WIyWlLk6GJQsqaUBKTNV-1">
          <mxGeometry x="20" y="-240" width="230" height="580" as="geometry" />
        </mxCell>
        <mxCell id="PJYTQZl245SU4uXbmKMS-33" value="- Nome: String" style="text;html=1;align=center;verticalAlign=middle;whiteSpace=wrap;rounded=0;" vertex="1" parent="PJYTQZl245SU4uXbmKMS-32">
          <mxGeometry y="30" width="90" height="30" as="geometry" />
        </mxCell>
        <mxCell id="PJYTQZl245SU4uXbmKMS-34" value="- Senha&lt;span style=&quot;background-color: initial;&quot;&gt;: String&lt;/span&gt;" style="text;html=1;align=center;verticalAlign=middle;whiteSpace=wrap;rounded=0;" vertex="1" parent="PJYTQZl245SU4uXbmKMS-32">
          <mxGeometry y="60" width="90" height="30" as="geometry" />
        </mxCell>
        <mxCell id="PJYTQZl245SU4uXbmKMS-35" value="- Email: String" style="text;html=1;align=center;verticalAlign=middle;whiteSpace=wrap;rounded=0;" vertex="1" parent="PJYTQZl245SU4uXbmKMS-32">
          <mxGeometry y="90" width="90" height="30" as="geometry" />
        </mxCell>
        <mxCell id="PJYTQZl245SU4uXbmKMS-36" value="&lt;div&gt;&lt;br&gt;&lt;/div&gt;- Telefone: Int&lt;div&gt;&lt;br&gt;&lt;/div&gt;" style="text;html=1;align=center;verticalAlign=middle;whiteSpace=wrap;rounded=0;" vertex="1" parent="PJYTQZl245SU4uXbmKMS-32">
          <mxGeometry y="120" width="90" height="30" as="geometry" />
        </mxCell>
        <mxCell id="PJYTQZl245SU4uXbmKMS-37" value="- Cpf: Int" style="text;html=1;align=center;verticalAlign=middle;whiteSpace=wrap;rounded=0;" vertex="1" parent="PJYTQZl245SU4uXbmKMS-32">
          <mxGeometry y="150" width="60" height="30" as="geometry" />
        </mxCell>
        <mxCell id="PJYTQZl245SU4uXbmKMS-38" value="- DatadeNascimento: Int" style="text;html=1;align=center;verticalAlign=middle;whiteSpace=wrap;rounded=0;" vertex="1" parent="PJYTQZl245SU4uXbmKMS-32">
          <mxGeometry x="-10" y="180" width="170" height="30" as="geometry" />
        </mxCell>
        <mxCell id="PJYTQZl245SU4uXbmKMS-39" value="- Sexo: Char&amp;nbsp;" style="text;html=1;align=center;verticalAlign=middle;whiteSpace=wrap;rounded=0;" vertex="1" parent="PJYTQZl245SU4uXbmKMS-32">
          <mxGeometry y="210" width="90" height="30" as="geometry" />
        </mxCell>
        <mxCell id="PJYTQZl245SU4uXbmKMS-40" value="- AutorizacaoUsoDados: Boolean" style="text;html=1;align=center;verticalAlign=middle;whiteSpace=wrap;rounded=0;" vertex="1" parent="PJYTQZl245SU4uXbmKMS-32">
          <mxGeometry y="240" width="190" height="30" as="geometry" />
        </mxCell>
        <mxCell id="PJYTQZl245SU4uXbmKMS-41" value="- EnviodePromocoes: Boolean" style="text;html=1;align=center;verticalAlign=middle;whiteSpace=wrap;rounded=0;" vertex="1" parent="PJYTQZl245SU4uXbmKMS-32">
          <mxGeometry y="270" width="180" height="30" as="geometry" />
        </mxCell>
        <mxCell id="PJYTQZl245SU4uXbmKMS-44" value="+ Cadastrar ( )" style="text;html=1;align=center;verticalAlign=middle;whiteSpace=wrap;rounded=0;" vertex="1" parent="PJYTQZl245SU4uXbmKMS-32">
          <mxGeometry y="330" width="80" height="30" as="geometry" />
        </mxCell>
        <mxCell id="PJYTQZl245SU4uXbmKMS-57" value="+ ObterNome ( )" style="text;html=1;align=center;verticalAlign=middle;whiteSpace=wrap;rounded=0;" vertex="1" parent="PJYTQZl245SU4uXbmKMS-32">
          <mxGeometry y="360" width="90" height="30" as="geometry" />
        </mxCell>
        <mxCell id="PJYTQZl245SU4uXbmKMS-58" value="+ ObterSenha ( )" style="text;html=1;align=center;verticalAlign=middle;whiteSpace=wrap;rounded=0;" vertex="1" parent="PJYTQZl245SU4uXbmKMS-32">
          <mxGeometry x="-5" y="390" width="100" height="30" as="geometry" />
        </mxCell>
        <mxCell id="PJYTQZl245SU4uXbmKMS-59" value="+ ObterEmail ( )" style="text;html=1;align=center;verticalAlign=middle;whiteSpace=wrap;rounded=0;" vertex="1" parent="PJYTQZl245SU4uXbmKMS-32">
          <mxGeometry x="-5" y="420" width="100" height="30" as="geometry" />
        </mxCell>
        <mxCell id="PJYTQZl245SU4uXbmKMS-61" value="+ ObterTelefone( )" style="text;html=1;align=center;verticalAlign=middle;whiteSpace=wrap;rounded=0;" vertex="1" parent="PJYTQZl245SU4uXbmKMS-32">
          <mxGeometry y="450" width="100" height="30" as="geometry" />
        </mxCell>
        <mxCell id="PJYTQZl245SU4uXbmKMS-62" value="+ ObterCpf( )" style="text;html=1;align=center;verticalAlign=middle;whiteSpace=wrap;rounded=0;" vertex="1" parent="PJYTQZl245SU4uXbmKMS-32">
          <mxGeometry y="480" width="80" height="30" as="geometry" />
        </mxCell>
        <mxCell id="PJYTQZl245SU4uXbmKMS-63" value="+ ObterDatadeNascimento( )" style="text;html=1;align=center;verticalAlign=middle;whiteSpace=wrap;rounded=0;" vertex="1" parent="PJYTQZl245SU4uXbmKMS-32">
          <mxGeometry y="510" width="160" height="30" as="geometry" />
        </mxCell>
        <mxCell id="PJYTQZl245SU4uXbmKMS-64" value="+ ObterSexo( )" style="text;html=1;align=center;verticalAlign=middle;whiteSpace=wrap;rounded=0;" vertex="1" parent="PJYTQZl245SU4uXbmKMS-32">
          <mxGeometry y="540" width="90" height="30" as="geometry" />
        </mxCell>
        <mxCell id="PJYTQZl245SU4uXbmKMS-47" value="" style="endArrow=none;html=1;rounded=0;" edge="1" parent="WIyWlLk6GJQsqaUBKTNV-1">
          <mxGeometry width="50" height="50" relative="1" as="geometry">
            <mxPoint x="20" y="80" as="sourcePoint" />
            <mxPoint x="250" y="80" as="targetPoint" />
          </mxGeometry>
        </mxCell>
        <mxCell id="PJYTQZl245SU4uXbmKMS-48" value="Login" style="swimlane;whiteSpace=wrap;html=1;" vertex="1" parent="WIyWlLk6GJQsqaUBKTNV-1">
          <mxGeometry x="1070" y="-230" width="200" height="200" as="geometry" />
        </mxCell>
        <mxCell id="PJYTQZl245SU4uXbmKMS-49" value="- Email: String" style="text;html=1;align=center;verticalAlign=middle;whiteSpace=wrap;rounded=0;" vertex="1" parent="PJYTQZl245SU4uXbmKMS-48">
          <mxGeometry x="3" y="30" width="80" height="30" as="geometry" />
        </mxCell>
        <mxCell id="PJYTQZl245SU4uXbmKMS-50" value="- Senha: String" style="text;html=1;align=center;verticalAlign=middle;whiteSpace=wrap;rounded=0;" vertex="1" parent="PJYTQZl245SU4uXbmKMS-48">
          <mxGeometry y="60" width="90" height="30" as="geometry" />
        </mxCell>
        <mxCell id="PJYTQZl245SU4uXbmKMS-52" value="+ Entrar ( )" style="text;html=1;align=center;verticalAlign=middle;whiteSpace=wrap;rounded=0;" vertex="1" parent="PJYTQZl245SU4uXbmKMS-48">
          <mxGeometry x="3" y="100" width="60" height="30" as="geometry" />
        </mxCell>
        <mxCell id="PJYTQZl245SU4uXbmKMS-53" value="+ RedirecionarWhatsapp ( )" style="text;html=1;align=center;verticalAlign=middle;whiteSpace=wrap;rounded=0;" vertex="1" parent="PJYTQZl245SU4uXbmKMS-48">
          <mxGeometry x="3" y="120" width="150" height="30" as="geometry" />
        </mxCell>
        <mxCell id="PJYTQZl245SU4uXbmKMS-54" value="+ RedirecionarInstagram ( )" style="text;html=1;align=center;verticalAlign=middle;whiteSpace=wrap;rounded=0;" vertex="1" parent="PJYTQZl245SU4uXbmKMS-48">
          <mxGeometry x="3" y="140" width="150" height="30" as="geometry" />
        </mxCell>
        <mxCell id="PJYTQZl245SU4uXbmKMS-55" value="+ RedirecionarLinkedIn ( )" style="text;html=1;align=center;verticalAlign=middle;whiteSpace=wrap;rounded=0;" vertex="1" parent="PJYTQZl245SU4uXbmKMS-48">
          <mxGeometry y="160" width="150" height="30" as="geometry" />
        </mxCell>
        <mxCell id="PJYTQZl245SU4uXbmKMS-51" value="" style="endArrow=none;html=1;rounded=0;exitX=0;exitY=0.5;exitDx=0;exitDy=0;entryX=1;entryY=0.5;entryDx=0;entryDy=0;" edge="1" parent="WIyWlLk6GJQsqaUBKTNV-1" source="PJYTQZl245SU4uXbmKMS-48" target="PJYTQZl245SU4uXbmKMS-48">
          <mxGeometry width="50" height="50" relative="1" as="geometry">
            <mxPoint x="1063" y="-140" as="sourcePoint" />
            <mxPoint x="1113" y="-190" as="targetPoint" />
          </mxGeometry>
        </mxCell>
        <mxCell id="PJYTQZl245SU4uXbmKMS-56" value="Serviços" style="swimlane;whiteSpace=wrap;html=1;" vertex="1" parent="WIyWlLk6GJQsqaUBKTNV-1">
          <mxGeometry x="281" y="560" width="200" height="310" as="geometry" />
        </mxCell>
        <mxCell id="PJYTQZl245SU4uXbmKMS-65" value="- Id_Servico: Int" style="text;html=1;align=center;verticalAlign=middle;whiteSpace=wrap;rounded=0;" vertex="1" parent="PJYTQZl245SU4uXbmKMS-56">
          <mxGeometry y="30" width="90" height="30" as="geometry" />
        </mxCell>
        <mxCell id="PJYTQZl245SU4uXbmKMS-67" value="- NomeServico: String" style="text;html=1;align=center;verticalAlign=middle;whiteSpace=wrap;rounded=0;" vertex="1" parent="PJYTQZl245SU4uXbmKMS-56">
          <mxGeometry y="55" width="120" height="30" as="geometry" />
        </mxCell>
        <mxCell id="PJYTQZl245SU4uXbmKMS-69" value="- DescricaoServico: String" style="text;html=1;align=center;verticalAlign=middle;whiteSpace=wrap;rounded=0;" vertex="1" parent="PJYTQZl245SU4uXbmKMS-56">
          <mxGeometry x="-10" y="80" width="160" height="30" as="geometry" />
        </mxCell>
        <mxCell id="PJYTQZl245SU4uXbmKMS-108" value="- Disponibilidade: Boolean&amp;nbsp;" style="text;html=1;align=center;verticalAlign=middle;whiteSpace=wrap;rounded=0;" vertex="1" parent="PJYTQZl245SU4uXbmKMS-56">
          <mxGeometry y="110" width="150" height="30" as="geometry" />
        </mxCell>
        <mxCell id="PJYTQZl245SU4uXbmKMS-110" value="+ DefinirDisponibilidade ( )" style="text;html=1;align=center;verticalAlign=middle;whiteSpace=wrap;rounded=0;" vertex="1" parent="PJYTQZl245SU4uXbmKMS-56">
          <mxGeometry x="-1" y="190" width="150" height="30" as="geometry" />
        </mxCell>
        <mxCell id="PJYTQZl245SU4uXbmKMS-111" value="+ VerificarDisponibilidade ( )" style="text;html=1;align=center;verticalAlign=middle;whiteSpace=wrap;rounded=0;" vertex="1" parent="PJYTQZl245SU4uXbmKMS-56">
          <mxGeometry x="-1" y="220" width="160" height="30" as="geometry" />
        </mxCell>
        <mxCell id="PJYTQZl245SU4uXbmKMS-112" value="+ Reservar ( )" style="text;html=1;align=center;verticalAlign=middle;whiteSpace=wrap;rounded=0;" vertex="1" parent="PJYTQZl245SU4uXbmKMS-56">
          <mxGeometry x="-9" y="250" width="106" height="30" as="geometry" />
        </mxCell>
        <mxCell id="PJYTQZl245SU4uXbmKMS-113" value="+ ConfirmarReserva ( )" style="text;html=1;align=center;verticalAlign=middle;whiteSpace=wrap;rounded=0;" vertex="1" parent="PJYTQZl245SU4uXbmKMS-56">
          <mxGeometry x="-4" y="280" width="146" height="30" as="geometry" />
        </mxCell>
        <mxCell id="PJYTQZl245SU4uXbmKMS-164" value="- categoria: Categoria" style="text;html=1;align=center;verticalAlign=middle;whiteSpace=wrap;rounded=0;" vertex="1" parent="PJYTQZl245SU4uXbmKMS-56">
          <mxGeometry y="140" width="121" height="30" as="geometry" />
        </mxCell>
        <mxCell id="PJYTQZl245SU4uXbmKMS-109" value="" style="endArrow=none;html=1;rounded=0;exitX=0;exitY=0;exitDx=0;exitDy=0;" edge="1" parent="WIyWlLk6GJQsqaUBKTNV-1" source="PJYTQZl245SU4uXbmKMS-110">
          <mxGeometry width="50" height="50" relative="1" as="geometry">
            <mxPoint x="281" y="730" as="sourcePoint" />
            <mxPoint x="481" y="750" as="targetPoint" />
            <Array as="points">
              <mxPoint x="381" y="750" />
            </Array>
          </mxGeometry>
        </mxCell>
        <mxCell id="PJYTQZl245SU4uXbmKMS-161" value="CategoriaServico" style="swimlane;whiteSpace=wrap;html=1;" vertex="1" parent="WIyWlLk6GJQsqaUBKTNV-1">
          <mxGeometry x="-120" y="730" width="200" height="110" as="geometry" />
        </mxCell>
        <mxCell id="PJYTQZl245SU4uXbmKMS-162" value="- Id_Categoria: Int" style="text;html=1;align=center;verticalAlign=middle;whiteSpace=wrap;rounded=0;" vertex="1" parent="PJYTQZl245SU4uXbmKMS-161">
          <mxGeometry y="30" width="110" height="30" as="geometry" />
        </mxCell>
        <mxCell id="PJYTQZl245SU4uXbmKMS-163" value="- NomeCategoria: String" style="text;html=1;align=center;verticalAlign=middle;whiteSpace=wrap;rounded=0;" vertex="1" parent="PJYTQZl245SU4uXbmKMS-161">
          <mxGeometry y="60" width="150" height="30" as="geometry" />
        </mxCell>
        <mxCell id="PJYTQZl245SU4uXbmKMS-173" value="Relation" style="endArrow=open;html=1;endSize=12;startArrow=diamondThin;startSize=14;startFill=0;edgeStyle=orthogonalEdgeStyle;rounded=0;exitX=1;exitY=0.5;exitDx=0;exitDy=0;entryX=0;entryY=0.25;entryDx=0;entryDy=0;" edge="1" parent="WIyWlLk6GJQsqaUBKTNV-1" source="PJYTQZl245SU4uXbmKMS-161" target="PJYTQZl245SU4uXbmKMS-111">
          <mxGeometry relative="1" as="geometry">
            <mxPoint x="100" y="790" as="sourcePoint" />
            <mxPoint x="260" y="790" as="targetPoint" />
          </mxGeometry>
        </mxCell>
        <mxCell id="PJYTQZl245SU4uXbmKMS-174" value="0..n" style="edgeLabel;resizable=0;html=1;align=left;verticalAlign=top;" connectable="0" vertex="1" parent="PJYTQZl245SU4uXbmKMS-173">
          <mxGeometry x="-1" relative="1" as="geometry" />
        </mxCell>
        <mxCell id="PJYTQZl245SU4uXbmKMS-175" value="1" style="edgeLabel;resizable=0;html=1;align=right;verticalAlign=top;" connectable="0" vertex="1" parent="PJYTQZl245SU4uXbmKMS-173">
          <mxGeometry x="1" relative="1" as="geometry" />
        </mxCell>
        <mxCell id="PJYTQZl245SU4uXbmKMS-176" value="Fidelidade" style="swimlane;whiteSpace=wrap;html=1;" vertex="1" parent="WIyWlLk6GJQsqaUBKTNV-1">
          <mxGeometry x="1540" y="-10" width="200" height="200" as="geometry" />
        </mxCell>
        <mxCell id="PJYTQZl245SU4uXbmKMS-177" value="Cliente" style="swimlane;whiteSpace=wrap;html=1;" vertex="1" parent="WIyWlLk6GJQsqaUBKTNV-1">
          <mxGeometry x="570" y="-270" width="200" height="250" as="geometry" />
        </mxCell>
        <mxCell id="PJYTQZl245SU4uXbmKMS-179" value="- Id_Cliente: Int" style="text;html=1;align=center;verticalAlign=middle;whiteSpace=wrap;rounded=0;" vertex="1" parent="PJYTQZl245SU4uXbmKMS-177">
          <mxGeometry y="30" width="90" height="30" as="geometry" />
        </mxCell>
        <mxCell id="PJYTQZl245SU4uXbmKMS-178" value="- Nome: String" style="text;html=1;align=center;verticalAlign=middle;whiteSpace=wrap;rounded=0;" vertex="1" parent="PJYTQZl245SU4uXbmKMS-177">
          <mxGeometry y="60" width="90" height="30" as="geometry" />
        </mxCell>
        <mxCell id="PJYTQZl245SU4uXbmKMS-180" value="- Senha: String" style="text;html=1;align=center;verticalAlign=middle;whiteSpace=wrap;rounded=0;" vertex="1" parent="PJYTQZl245SU4uXbmKMS-177">
          <mxGeometry y="90" width="90" height="30" as="geometry" />
        </mxCell>
        <mxCell id="PJYTQZl245SU4uXbmKMS-181" value="- Email: String" style="text;html=1;align=center;verticalAlign=middle;whiteSpace=wrap;rounded=0;" vertex="1" parent="PJYTQZl245SU4uXbmKMS-177">
          <mxGeometry y="120" width="90" height="30" as="geometry" />
        </mxCell>
        <mxCell id="PJYTQZl245SU4uXbmKMS-182" value="- Idade: Int" style="text;html=1;align=center;verticalAlign=middle;whiteSpace=wrap;rounded=0;" vertex="1" parent="PJYTQZl245SU4uXbmKMS-177">
          <mxGeometry y="150" width="70" height="30" as="geometry" />
        </mxCell>
        <mxCell id="PJYTQZl245SU4uXbmKMS-183" value="- PontoFidelidade : Int" style="text;html=1;align=center;verticalAlign=middle;whiteSpace=wrap;rounded=0;" vertex="1" parent="PJYTQZl245SU4uXbmKMS-177">
          <mxGeometry y="180" width="130" height="30" as="geometry" />
        </mxCell>
        <mxCell id="PJYTQZl245SU4uXbmKMS-184" value="- DataDeNascimento: Int" style="text;html=1;align=center;verticalAlign=middle;whiteSpace=wrap;rounded=0;" vertex="1" parent="PJYTQZl245SU4uXbmKMS-177">
          <mxGeometry x="-10" y="210" width="160" height="30" as="geometry" />
        </mxCell>
      </root>
    </mxGraphModel>
  </diagram>
</mxfile>
